<svg xmlns="http://www.w3.org/2000/svg" xmlns:xlink="http://www.w3.org/1999/xlink" width="94" height="109" viewBox="0 0 94 109">
    <defs>
        <path id="a" d="M.814.54c1.38-.337 2.58.94 4.766 1.05C7.175 1.67 8.74.888 9.458.54c1.699-.826 1.97-.247 2.23.401.26.649.63 3.11-1.845 4.375-2.475 1.264-7.093.712-8.786-.582C-.635 3.439.135.706.814.54z"/>
    </defs>
    <g fill="none" fill-rule="evenodd">
        <path fill="#FFF" d="M-138-218h375v667h-375z"/>
        <g transform="translate(0 -1)">
            <path fill="#E1E1E1" fill-rule="nonzero" d="M8.555 28.792L0 22.012l11.408-.724-.617-12.53 9.871 4.77L24.09.932l5.917 8.927 8.35-5.48.8 16.036-6.035 15.198-30.85 2.96z"/>
            <path fill="#9884DC" d="M68.55 71.94c3.138-.519 5.398-2.662 7.84-6.524 3.661-5.795-.386-7.66-1.259-6.705-.873.955-.842 2.919-1.951 5.435-.236.535-1.038 3.399-4.785 5.386-1.841.977-1.9 2.31.155 2.408z"/>
            <path fill="#9884DC" d="M68.55 71.94c3.138-.519 5.398-2.662 7.84-6.524 3.661-5.795-.386-7.66-1.259-6.705-.873.955-.842 2.919-1.951 5.435-.236.535-1.038 3.399-4.785 5.386-1.841.977-1.9 2.31.155 2.408z"/>
            <path fill="#999" d="M36.476 69.465c-3.166.309-6.429-1.087-9.789-4.188-5.04-4.65-1.615-7.498-.524-6.8 1.091.697 1.307 3.124 3.295 4.746.807.658 4.981 4.438 16.464.978.64-.192 1.016 1.242.081 1.726-1.686.871-4.862 2.05-9.527 3.538z"/>
            <path stroke="#9884DC" stroke-linecap="round" stroke-linejoin="round" stroke-width="1.952" d="M50.619 59.067c.998 1.033 1.948 1.033 2.849 0"/>
            <path fill="#634DAF" d="M44.827 54.538l3.059.82a1.075 1.075 0 0 1-.133 2.104l-3.608.493a1.588 1.588 0 0 1-1.78-1.843 1.978 1.978 0 0 1 2.462-1.574zM59.519 54.538l-3.06.82a1.075 1.075 0 0 0 .134 2.104l3.608.493a1.588 1.588 0 0 0 1.78-1.843 1.978 1.978 0 0 0-2.462-1.574z"/>
            <ellipse cx="45.883" cy="59.149" fill="#634DAF" rx="1.48" ry="1.468"/>
            <ellipse cx="58.832" cy="59.149" fill="#634DAF" rx="1.48" ry="1.468"/>
            <ellipse cx="52.213" cy="102.032" fill="#E1E1E1" rx="29.63" ry="7.238"/>
            <path fill="#ACACAC" d="M53.557 42.556c12.122-14.941 16.879-6.03 14.958-2.806-1.92 3.223-6.844 4.974-11.14 10.861-1.745 2.39-11.62 14.76-7.291 48.316.24 1.868-3.135 3.023-3.946.297-2.194-7.372-4.704-41.727 7.419-56.668z"/>
            <path fill="#ACACAC" d="M63.37 45.975c11.844-13.902 11.17-2.865 9.307.145-1.863 3.01-1.192 2.023-5.38 7.509-1.701 2.227-11.346 13.739-6.519 45.442.269 1.765-3.075 2.802-3.925.22-2.299-6.984-5.326-39.413 6.517-53.316z"/>
            <path fill="#999" d="M55.234 96.039l-.156 6.592 7.071.056.069-6.54a2.333 2.333 0 0 0-2.304-2.357l-2.318-.029a2.333 2.333 0 0 0-2.362 2.278z"/>
            <path fill="#FFF" d="M59.126 102.393l7.062.079c-.174-2.346-1.333-3.557-3.478-3.635-2.144-.078-3.34 1.107-3.584 3.556z"/>
            <path fill="#FFF" d="M54.905 102.061l11.355.255.029.834-11.432-.199z"/>
            <path stroke="#FFF" stroke-linecap="round" stroke-linejoin="round" stroke-width="2.333" d="M60.108 97.5l2.766-.027M59.82 95.572l2.739-.039"/>
            <path fill="#999" d="M50.14 96.039l.157 6.592-7.072.056-.068-6.54a2.333 2.333 0 0 1 2.303-2.357l2.319-.029a2.333 2.333 0 0 1 2.362 2.278z"/>
            <path fill="#FFF" d="M46.249 102.393l-7.062.079c.174-2.346 1.333-3.557 3.478-3.635 2.144-.078 3.339 1.107 3.584 3.556z"/>
            <path fill="#FFF" d="M50.47 102.061l-11.355.255-.029.834 11.432-.199z"/>
            <path stroke="#FFF" stroke-linecap="round" stroke-linejoin="round" stroke-width="2.333" d="M45.267 97.5l-2.766-.027M45.554 95.572l-2.738-.039"/>
            <path fill="#E1E1E1" d="M31.398 51.94c2.65 13.982 4.647 23.558 5.988 28.728 2.012 7.755 27.374 9.179 29.763.624 2.389-8.555 2.922-17.485 5.4-25.83 1.651-5.565.906-11.542-2.235-17.933L52.4 34.189 31.398 51.94z"/>
            <path fill="#ACACAC" d="M88.12 45.976c3.572 3.14 5.58 7.886 4.965 12.904-1 8.14-8.527 13.913-16.814 12.896-8.286-1.018-14.193-8.441-13.194-16.58.189-1.54.612-2.996 1.229-4.336a18.058 18.058 0 0 1-3.3-2.477 23.23 23.23 0 0 1-12.714 2.005 23.522 23.522 0 0 1-4.813-1.11c-1.451 8.516-9.486 14.457-18.305 13.374-9.075-1.114-15.545-9.244-14.45-18.16 1.054-8.59 8.748-14.774 17.426-14.216a22.312 22.312 0 0 1 .037-5.154C29.71 12.72 41.18 3.921 53.807 5.472c8.035.986 14.602 5.925 17.924 12.583a18.376 18.376 0 0 1 3.876.067c9.864 1.21 16.897 10.048 15.707 19.738a17.353 17.353 0 0 1-3.195 8.116z"/>
            <path fill="#999" d="M69.072 71.98c3.118-.627 5.635-2.53 7.326-6.704 2.433-6.005-.328-8.048-1.492-6.656-1.164 1.39-.74 2.946-1.76 5.5-.217.542-.919 3.432-4.594 5.549-1.028.593-.953.95-.753 1.517.118.334.388.783 1.273.794zM53.932 61.968c1.457.362 3.101.601 3.468-.867s-1.197-2.028-2.654-2.39c-1.458-.363-2.821.072-3.046.972-.224.899.775 1.922 2.232 2.285zM43.994 60.445c-1.496.13-3.158.11-3.29-1.398-.132-1.507 1.5-1.815 2.997-1.946 1.496-.13 2.774.512 2.855 1.435.081.924-1.066 1.778-2.562 1.909z"/>
            <ellipse cx="54.319" cy="64.619" fill="#999" rx="1.683" ry="1.678"/>
            <ellipse cx="43.858" cy="63.328" fill="#999" rx="1.683" ry="1.678"/>
            <path fill="#999" d="M26.687 65.277c-5.04-4.65-1.615-7.498-.524-6.8 1.091.697 1.307 3.124 3.295 4.746.299.243 2.748 1.297 4.38 2.054.407.19-3.975 2.932-7.15 0z"/>
            <g>
                <g transform="rotate(-173 29.444 34.322)">
                    <mask id="b" fill="#fff">
                        <use xlink:href="#a"/>
                    </mask>
                    <use fill="#999" xlink:href="#a"/>
                    <path fill="#C0C0C0" d="M13.272 1.39c-.41.408-.92.785-1.555 1.11C8.25 4.272 2 3.684-.933 2.03.675.243 3.403-.932 6.497-.932c2.708 0 5.135.9 6.776 2.323z" mask="url(#b)" transform="rotate(-180 6.17 1.324)"/>
                </g>
            </g>
        </g>
    </g>
</svg>
